<?xml version="1.0" encoding="UTF-8" standalone="no"?>
<!DOCTYPE svg PUBLIC "-//W3C//DTD SVG 1.1//EN"
 "http://www.w3.org/Graphics/SVG/1.1/DTD/svg11.dtd">
<!-- Generated by graphviz version 7.1.0 (0)
 -->
<!-- Title: G Pages: 1 -->
<svg width="2698pt" height="446pt"
 viewBox="0.00 0.00 2697.56 446.00" xmlns="http://www.w3.org/2000/svg" xmlns:xlink="http://www.w3.org/1999/xlink">
<g id="graph0" class="graph" transform="scale(1 1) rotate(0) translate(4 442)">
<title>G</title>
<polygon fill="white" stroke="none" points="-4,4 -4,-442 2693.56,-442 2693.56,4 -4,4"/>
<!-- 1 -->
<g id="node1" class="node">
<title>1</title>
<ellipse fill="white" stroke="black" cx="27" cy="-41" rx="27" ry="18"/>
<text text-anchor="middle" x="27" y="-37.3" font-family="XITS" font-size="14.00">1</text>
</g>
<!-- 101 -->
<g id="node2" class="node">
<title>101</title>
<ellipse fill="white" stroke="black" cx="117" cy="-41" rx="27" ry="18"/>
<text text-anchor="middle" x="117" y="-37.3" font-family="XITS" font-size="14.00">101</text>
</g>
<!-- 1&#45;&gt;101 -->
<g id="edge1" class="edge">
<title>1&#45;&gt;101</title>
<path fill="none" stroke="black" d="M54.4,-41C62.5,-41 71.54,-41 80.15,-41"/>
<polygon fill="black" stroke="black" points="80.1,-43.8 88.1,-41 80.1,-38.2 80.1,-43.8"/>
</g>
<!-- 102 -->
<g id="node3" class="node">
<title>102</title>
<ellipse fill="white" stroke="black" cx="207" cy="-41" rx="27" ry="18"/>
<text text-anchor="middle" x="207" y="-37.3" font-family="XITS" font-size="14.00">102</text>
</g>
<!-- 101&#45;&gt;102 -->
<g id="edge2" class="edge">
<title>101&#45;&gt;102</title>
<path fill="none" stroke="black" d="M144.4,-41C152.5,-41 161.54,-41 170.15,-41"/>
<polygon fill="black" stroke="black" points="170.1,-43.8 178.1,-41 170.1,-38.2 170.1,-43.8"/>
</g>
<!-- 2 -->
<g id="node4" class="node">
<title>2</title>
<ellipse fill="white" stroke="black" cx="297" cy="-18" rx="27" ry="18"/>
<text text-anchor="middle" x="297" y="-14.3" font-family="XITS" font-size="14.00">2</text>
</g>
<!-- 102&#45;&gt;2 -->
<g id="edge3" class="edge">
<title>102&#45;&gt;2</title>
<path fill="none" stroke="black" d="M232.51,-34.59C241.69,-32.2 252.27,-29.43 262.14,-26.85"/>
<polygon fill="black" stroke="black" points="262.82,-29.57 269.85,-24.83 261.4,-24.15 262.82,-29.57"/>
</g>
<!-- 16 -->
<g id="node5" class="node">
<title>16</title>
<polygon fill="#f8cecc" stroke="black" points="1950.39,-74 1896.39,-74 1896.39,-38 1950.39,-38 1950.39,-74"/>
<text text-anchor="middle" x="1923.39" y="-52.3" font-family="XITS" font-size="14.00">16</text>
</g>
<!-- 102&#45;&gt;16 -->
<g id="edge4" class="edge">
<title>102&#45;&gt;16</title>
<path fill="none" stroke="black" d="M233.22,-46.33C267.59,-53.13 331.16,-64 386,-64 386,-64 386,-64 1741.19,-64 1791.78,-64 1850.23,-60.85 1886.75,-58.5"/>
<polygon fill="black" stroke="black" points="1886.69,-61.31 1894.49,-58 1886.32,-55.73 1886.69,-61.31"/>
</g>
<!-- 201 -->
<g id="node6" class="node">
<title>201</title>
<ellipse fill="white" stroke="black" cx="387" cy="-18" rx="27" ry="18"/>
<text text-anchor="middle" x="387" y="-14.3" font-family="XITS" font-size="14.00">201</text>
</g>
<!-- 2&#45;&gt;201 -->
<g id="edge5" class="edge">
<title>2&#45;&gt;201</title>
<path fill="none" stroke="black" d="M324.4,-18C332.5,-18 341.54,-18 350.15,-18"/>
<polygon fill="black" stroke="black" points="350.1,-20.8 358.1,-18 350.1,-15.2 350.1,-20.8"/>
</g>
<!-- 1501 -->
<g id="node33" class="node">
<title>1501</title>
<ellipse fill="white" stroke="black" cx="2567.77" cy="-137" rx="28.7" ry="18"/>
<text text-anchor="middle" x="2567.77" y="-133.3" font-family="XITS" font-size="14.00">1501</text>
</g>
<!-- 16&#45;&gt;1501 -->
<g id="edge41" class="edge">
<title>16&#45;&gt;1501</title>
<path fill="none" stroke="black" d="M1950.81,-48.89C1986.15,-40.02 2050.9,-26 2107.18,-26 2107.18,-26 2107.18,-26 2385.57,-26 2452.45,-26 2515.48,-81.67 2546.57,-114.16"/>
<polygon fill="black" stroke="black" points="2544.51,-116.06 2552.03,-119.99 2548.6,-112.24 2544.51,-116.06"/>
</g>
<!-- 201&#45;&gt;16 -->
<g id="edge6" class="edge">
<title>201&#45;&gt;16</title>
<path fill="none" stroke="black" d="M414.23,-18.96C448.95,-20.14 512.06,-22 566,-22 566,-22 566,-22 1741.19,-22 1792.68,-22 1851.01,-35.43 1887.25,-45.4"/>
<polygon fill="black" stroke="black" points="1886.05,-47.98 1894.51,-47.45 1887.57,-42.59 1886.05,-47.98"/>
</g>
<!-- 3 -->
<g id="node7" class="node">
<title>3</title>
<ellipse fill="white" stroke="black" cx="477" cy="-251" rx="27" ry="18"/>
<text text-anchor="middle" x="477" y="-247.3" font-family="XITS" font-size="14.00">3</text>
</g>
<!-- 201&#45;&gt;3 -->
<g id="edge7" class="edge">
<title>201&#45;&gt;3</title>
<path fill="none" stroke="black" d="M394.61,-35.51C409.9,-75.99 447.77,-176.26 465.95,-224.39"/>
<polygon fill="black" stroke="black" points="463.33,-225.37 468.77,-231.87 468.57,-223.39 463.33,-225.37"/>
</g>
<!-- 301 -->
<g id="node8" class="node">
<title>301</title>
<ellipse fill="white" stroke="black" cx="567" cy="-373" rx="27" ry="18"/>
<text text-anchor="middle" x="567" y="-369.3" font-family="XITS" font-size="14.00">301</text>
</g>
<!-- 3&#45;&gt;301 -->
<g id="edge8" class="edge">
<title>3&#45;&gt;301</title>
<path fill="none" stroke="black" d="M489.69,-267.2C504.81,-288.16 531.28,-324.86 548.72,-349.05"/>
<polygon fill="black" stroke="black" points="546.43,-350.65 553.38,-355.5 550.97,-347.38 546.43,-350.65"/>
</g>
<!-- 4 -->
<g id="node9" class="node">
<title>4</title>
<ellipse fill="white" stroke="black" cx="657" cy="-373" rx="27" ry="18"/>
<text text-anchor="middle" x="657" y="-369.3" font-family="XITS" font-size="14.00">4</text>
</g>
<!-- 301&#45;&gt;4 -->
<g id="edge9" class="edge">
<title>301&#45;&gt;4</title>
<path fill="none" stroke="black" d="M594.4,-373C602.5,-373 611.54,-373 620.15,-373"/>
<polygon fill="black" stroke="black" points="620.1,-375.8 628.1,-373 620.1,-370.2 620.1,-375.8"/>
</g>
<!-- 15 -->
<g id="node10" class="node">
<title>15</title>
<polygon fill="#f8cecc" stroke="black" points="2503.17,-285 2449.17,-285 2449.17,-249 2503.17,-249 2503.17,-285"/>
<text text-anchor="middle" x="2476.17" y="-263.3" font-family="XITS" font-size="14.00">15</text>
</g>
<!-- 301&#45;&gt;15 -->
<g id="edge10" class="edge">
<title>301&#45;&gt;15</title>
<path fill="none" stroke="black" d="M587.44,-385.23C619.28,-404.05 685.14,-438 746,-438 746,-438 746,-438 2293.97,-438 2352.51,-438 2370.65,-422.23 2413.17,-382 2439.14,-357.42 2456.64,-319.51 2466.25,-294"/>
<polygon fill="black" stroke="black" points="2468.82,-295.11 2468.92,-286.64 2463.56,-293.2 2468.82,-295.11"/>
</g>
<!-- 401 -->
<g id="node11" class="node">
<title>401</title>
<ellipse fill="white" stroke="black" cx="747" cy="-373" rx="27" ry="18"/>
<text text-anchor="middle" x="747" y="-369.3" font-family="XITS" font-size="14.00">401</text>
</g>
<!-- 4&#45;&gt;401 -->
<g id="edge11" class="edge">
<title>4&#45;&gt;401</title>
<path fill="none" stroke="black" d="M684.4,-373C692.5,-373 701.54,-373 710.15,-373"/>
<polygon fill="black" stroke="black" points="710.1,-375.8 718.1,-373 710.1,-370.2 710.1,-375.8"/>
</g>
<!-- 15&#45;&gt;1501 -->
<g id="edge40" class="edge">
<title>15&#45;&gt;1501</title>
<path fill="none" stroke="black" d="M2489.82,-248.65C2505.57,-225.79 2532.55,-186.65 2550.01,-161.31"/>
<polygon fill="black" stroke="black" points="2552.23,-163.03 2554.46,-154.86 2547.61,-159.85 2552.23,-163.03"/>
</g>
<!-- 402 -->
<g id="node12" class="node">
<title>402</title>
<ellipse fill="white" stroke="black" cx="837" cy="-373" rx="27" ry="18"/>
<text text-anchor="middle" x="837" y="-369.3" font-family="XITS" font-size="14.00">402</text>
</g>
<!-- 401&#45;&gt;402 -->
<g id="edge12" class="edge">
<title>401&#45;&gt;402</title>
<path fill="none" stroke="black" d="M774.4,-373C782.5,-373 791.54,-373 800.15,-373"/>
<polygon fill="black" stroke="black" points="800.1,-375.8 808.1,-373 800.1,-370.2 800.1,-375.8"/>
</g>
<!-- 5 -->
<g id="node13" class="node">
<title>5</title>
<ellipse fill="white" stroke="black" cx="927" cy="-373" rx="27" ry="18"/>
<text text-anchor="middle" x="927" y="-369.3" font-family="XITS" font-size="14.00">5</text>
</g>
<!-- 402&#45;&gt;5 -->
<g id="edge13" class="edge">
<title>402&#45;&gt;5</title>
<path fill="none" stroke="black" d="M864.4,-373C872.5,-373 881.54,-373 890.15,-373"/>
<polygon fill="black" stroke="black" points="890.1,-375.8 898.1,-373 890.1,-370.2 890.1,-375.8"/>
</g>
<!-- 5&#45;&gt;15 -->
<g id="edge14" class="edge">
<title>5&#45;&gt;15</title>
<path fill="none" stroke="black" d="M952.88,-379.19C987.12,-387.17 1050.83,-400 1106,-400 1106,-400 1106,-400 2293.97,-400 2351.6,-400 2367.79,-384.5 2413.17,-349 2432.8,-333.65 2449.46,-310.65 2460.55,-292.91"/>
<polygon fill="black" stroke="black" points="2462.7,-294.77 2464.46,-286.48 2457.91,-291.86 2462.7,-294.77"/>
</g>
<!-- 6 -->
<g id="node14" class="node">
<title>6</title>
<ellipse fill="white" stroke="black" cx="1017" cy="-354" rx="27" ry="18"/>
<text text-anchor="middle" x="1017" y="-350.3" font-family="XITS" font-size="14.00">6</text>
</g>
<!-- 5&#45;&gt;6 -->
<g id="edge15" class="edge">
<title>5&#45;&gt;6</title>
<path fill="none" stroke="black" d="M952.98,-367.61C961.9,-365.68 972.11,-363.48 981.67,-361.41"/>
<polygon fill="black" stroke="black" points="982.25,-364.15 989.48,-359.73 981.07,-358.68 982.25,-364.15"/>
</g>
<!-- 6&#45;&gt;15 -->
<g id="edge16" class="edge">
<title>6&#45;&gt;15</title>
<path fill="none" stroke="black" d="M1044.22,-355.92C1078.93,-358.28 1142.02,-362 1196,-362 1196,-362 1196,-362 2293.97,-362 2350.29,-362 2364.35,-347.08 2413.17,-319 2426.23,-311.49 2439.23,-301.14 2449.93,-291.66"/>
<polygon fill="black" stroke="black" points="2451.79,-293.75 2455.82,-286.29 2448.02,-289.61 2451.79,-293.75"/>
</g>
<!-- 7 -->
<g id="node15" class="node">
<title>7</title>
<ellipse fill="white" stroke="black" cx="1107" cy="-316" rx="27" ry="18"/>
<text text-anchor="middle" x="1107" y="-312.3" font-family="XITS" font-size="14.00">7</text>
</g>
<!-- 6&#45;&gt;7 -->
<g id="edge17" class="edge">
<title>6&#45;&gt;7</title>
<path fill="none" stroke="black" d="M1040.21,-344.41C1050.84,-339.82 1063.74,-334.25 1075.29,-329.26"/>
<polygon fill="black" stroke="black" points="1076.18,-331.93 1082.41,-326.19 1073.96,-326.79 1076.18,-331.93"/>
</g>
<!-- 7&#45;&gt;15 -->
<g id="edge18" class="edge">
<title>7&#45;&gt;15</title>
<path fill="none" stroke="black" d="M1134.22,-317.92C1168.93,-320.28 1232.02,-324 1286,-324 1286,-324 1286,-324 2293.97,-324 2346.94,-324 2404.78,-301.56 2440.51,-284.84"/>
<polygon fill="black" stroke="black" points="2441.29,-287.57 2447.3,-281.6 2438.88,-282.52 2441.29,-287.57"/>
</g>
<!-- 8 -->
<g id="node16" class="node">
<title>8</title>
<ellipse fill="white" stroke="black" cx="1197" cy="-278" rx="27" ry="18"/>
<text text-anchor="middle" x="1197" y="-274.3" font-family="XITS" font-size="14.00">8</text>
</g>
<!-- 7&#45;&gt;8 -->
<g id="edge19" class="edge">
<title>7&#45;&gt;8</title>
<path fill="none" stroke="black" d="M1130.21,-306.41C1140.84,-301.82 1153.74,-296.25 1165.29,-291.26"/>
<polygon fill="black" stroke="black" points="1166.18,-293.93 1172.41,-288.19 1163.96,-288.79 1166.18,-293.93"/>
</g>
<!-- 8&#45;&gt;15 -->
<g id="edge20" class="edge">
<title>8&#45;&gt;15</title>
<path fill="none" stroke="black" d="M1224.22,-279.92C1258.93,-282.28 1322.02,-286 1376,-286 1376,-286 1376,-286 2293.97,-286 2344.79,-286 2403.18,-278.52 2439.63,-272.94"/>
<polygon fill="black" stroke="black" points="2439.89,-275.74 2447.36,-271.74 2439.02,-270.21 2439.89,-275.74"/>
</g>
<!-- 9 -->
<g id="node17" class="node">
<title>9</title>
<ellipse fill="white" stroke="black" cx="1287" cy="-240" rx="27" ry="18"/>
<text text-anchor="middle" x="1287" y="-236.3" font-family="XITS" font-size="14.00">9</text>
</g>
<!-- 8&#45;&gt;9 -->
<g id="edge21" class="edge">
<title>8&#45;&gt;9</title>
<path fill="none" stroke="black" d="M1220.21,-268.41C1230.84,-263.82 1243.74,-258.25 1255.29,-253.26"/>
<polygon fill="black" stroke="black" points="1256.18,-255.93 1262.41,-250.19 1253.96,-250.79 1256.18,-255.93"/>
</g>
<!-- 901 -->
<g id="node18" class="node">
<title>901</title>
<ellipse fill="white" stroke="black" cx="1377" cy="-240" rx="27" ry="18"/>
<text text-anchor="middle" x="1377" y="-236.3" font-family="XITS" font-size="14.00">901</text>
</g>
<!-- 9&#45;&gt;901 -->
<g id="edge22" class="edge">
<title>9&#45;&gt;901</title>
<path fill="none" stroke="black" d="M1314.4,-240C1322.5,-240 1331.54,-240 1340.15,-240"/>
<polygon fill="black" stroke="black" points="1340.1,-242.8 1348.1,-240 1340.1,-237.2 1340.1,-242.8"/>
</g>
<!-- 902 -->
<g id="node19" class="node">
<title>902</title>
<ellipse fill="white" stroke="black" cx="1467" cy="-240" rx="27" ry="18"/>
<text text-anchor="middle" x="1467" y="-236.3" font-family="XITS" font-size="14.00">902</text>
</g>
<!-- 901&#45;&gt;902 -->
<g id="edge23" class="edge">
<title>901&#45;&gt;902</title>
<path fill="none" stroke="black" d="M1404.4,-240C1412.5,-240 1421.54,-240 1430.15,-240"/>
<polygon fill="black" stroke="black" points="1430.1,-242.8 1438.1,-240 1430.1,-237.2 1430.1,-242.8"/>
</g>
<!-- 902&#45;&gt;15 -->
<g id="edge24" class="edge">
<title>902&#45;&gt;15</title>
<path fill="none" stroke="black" d="M1494.16,-241.9C1529.11,-244.26 1592.98,-248 1647.6,-248 1647.6,-248 1647.6,-248 2293.97,-248 2344.79,-248 2403.18,-255.48 2439.63,-261.06"/>
<polygon fill="black" stroke="black" points="2439.02,-263.79 2447.36,-262.26 2439.89,-258.26 2439.02,-263.79"/>
</g>
<!-- 10 -->
<g id="node20" class="node">
<title>10</title>
<ellipse fill="white" stroke="black" cx="1557" cy="-175" rx="27" ry="18"/>
<text text-anchor="middle" x="1557" y="-171.3" font-family="XITS" font-size="14.00">10</text>
</g>
<!-- 902&#45;&gt;10 -->
<g id="edge25" class="edge">
<title>902&#45;&gt;10</title>
<path fill="none" stroke="black" d="M1485.81,-226.85C1498.69,-217.33 1516.28,-204.34 1530.63,-193.74"/>
<polygon fill="black" stroke="black" points="1532.23,-196.04 1537,-189.03 1528.9,-191.53 1532.23,-196.04"/>
</g>
<!-- 1001 -->
<g id="node21" class="node">
<title>1001</title>
<ellipse fill="white" stroke="black" cx="1648.6" cy="-175" rx="28.7" ry="18"/>
<text text-anchor="middle" x="1648.6" y="-171.3" font-family="XITS" font-size="14.00">1001</text>
</g>
<!-- 10&#45;&gt;1001 -->
<g id="edge26" class="edge">
<title>10&#45;&gt;1001</title>
<path fill="none" stroke="black" d="M1584.4,-175C1592.42,-175 1601.4,-175 1610.02,-175"/>
<polygon fill="black" stroke="black" points="1610,-177.8 1618,-175 1610,-172.2 1610,-177.8"/>
</g>
<!-- 1001&#45;&gt;16 -->
<g id="edge27" class="edge">
<title>1001&#45;&gt;16</title>
<path fill="none" stroke="black" d="M1664.56,-159.89C1676.73,-148.35 1694.83,-132.82 1713.19,-123 1773.52,-90.74 1795.43,-99.44 1860.39,-78 1869.08,-75.13 1878.41,-71.9 1887.12,-68.82"/>
<polygon fill="black" stroke="black" points="1887.91,-71.51 1894.5,-66.19 1886.03,-66.24 1887.91,-71.51"/>
</g>
<!-- 11 -->
<g id="node22" class="node">
<title>11</title>
<ellipse fill="white" stroke="black" cx="1740.19" cy="-150" rx="27" ry="18"/>
<text text-anchor="middle" x="1740.19" y="-146.3" font-family="XITS" font-size="14.00">11</text>
</g>
<!-- 1001&#45;&gt;11 -->
<g id="edge28" class="edge">
<title>1001&#45;&gt;11</title>
<path fill="none" stroke="black" d="M1675.03,-167.9C1684.62,-165.23 1695.67,-162.14 1705.87,-159.3"/>
<polygon fill="black" stroke="black" points="1706.52,-162.02 1713.47,-157.18 1705.01,-156.63 1706.52,-162.02"/>
</g>
<!-- 18 -->
<g id="node23" class="node">
<title>18</title>
<ellipse fill="#fff2cc" stroke="black" cx="1831.79" cy="-202" rx="27" ry="18"/>
<text text-anchor="middle" x="1831.79" y="-198.3" font-family="XITS" font-size="14.00">18</text>
</g>
<!-- 1001&#45;&gt;18 -->
<g id="edge29" class="edge">
<title>1001&#45;&gt;18</title>
<path fill="none" stroke="black" d="M1676.72,-179.04C1708.4,-183.76 1760.87,-191.58 1795.64,-196.76"/>
<polygon fill="black" stroke="black" points="1795.13,-199.52 1803.45,-197.93 1795.95,-193.98 1795.13,-199.52"/>
</g>
<!-- 1101 -->
<g id="node24" class="node">
<title>1101</title>
<ellipse fill="white" stroke="black" cx="1831.79" cy="-148" rx="28.7" ry="18"/>
<text text-anchor="middle" x="1831.79" y="-144.3" font-family="XITS" font-size="14.00">1101</text>
</g>
<!-- 11&#45;&gt;1101 -->
<g id="edge30" class="edge">
<title>11&#45;&gt;1101</title>
<path fill="none" stroke="black" d="M1767.59,-149.41C1775.62,-149.23 1784.6,-149.03 1793.21,-148.84"/>
<polygon fill="black" stroke="black" points="1793.26,-151.64 1801.2,-148.66 1793.14,-146.04 1793.26,-151.64"/>
</g>
<!-- 18&#45;&gt;15 -->
<g id="edge45" class="edge">
<title>18&#45;&gt;15</title>
<path fill="none" stroke="black" d="M1858.88,-203.88C1894.08,-206.24 1958.73,-210 2013.99,-210 2013.99,-210 2013.99,-210 2293.97,-210 2348.01,-210 2362.3,-215.78 2413.17,-234 2422.39,-237.3 2431.93,-241.78 2440.68,-246.37"/>
<polygon fill="black" stroke="black" points="2439.09,-248.7 2447.46,-250.05 2441.76,-243.78 2439.09,-248.7"/>
</g>
<!-- 1101&#45;&gt;16 -->
<g id="edge31" class="edge">
<title>1101&#45;&gt;16</title>
<path fill="none" stroke="black" d="M1847.59,-132.81C1861.24,-118.79 1881.78,-97.7 1897.89,-81.16"/>
<polygon fill="black" stroke="black" points="1899.85,-83.16 1903.43,-75.47 1895.84,-79.25 1899.85,-83.16"/>
</g>
<!-- 12 -->
<g id="node25" class="node">
<title>12</title>
<ellipse fill="white" stroke="black" cx="1923.39" cy="-110" rx="27" ry="18"/>
<text text-anchor="middle" x="1923.39" y="-106.3" font-family="XITS" font-size="14.00">12</text>
</g>
<!-- 1101&#45;&gt;12 -->
<g id="edge32" class="edge">
<title>1101&#45;&gt;12</title>
<path fill="none" stroke="black" d="M1856.33,-138.02C1867.08,-133.46 1879.94,-128 1891.45,-123.12"/>
<polygon fill="black" stroke="black" points="1892.27,-125.82 1898.54,-120.12 1890.08,-120.66 1892.27,-125.82"/>
</g>
<!-- 17 -->
<g id="node26" class="node">
<title>17</title>
<ellipse fill="#fff2cc" stroke="black" cx="1923.39" cy="-164" rx="27" ry="18"/>
<text text-anchor="middle" x="1923.39" y="-160.3" font-family="XITS" font-size="14.00">17</text>
</g>
<!-- 1101&#45;&gt;17 -->
<g id="edge33" class="edge">
<title>1101&#45;&gt;17</title>
<path fill="none" stroke="black" d="M1859.67,-152.8C1868.4,-154.36 1878.2,-156.11 1887.43,-157.76"/>
<polygon fill="black" stroke="black" points="1886.9,-160.51 1895.27,-159.16 1887.88,-154.99 1886.9,-160.51"/>
</g>
<!-- 1201 -->
<g id="node27" class="node">
<title>1201</title>
<ellipse fill="white" stroke="black" cx="2014.99" cy="-110" rx="28.7" ry="18"/>
<text text-anchor="middle" x="2014.99" y="-106.3" font-family="XITS" font-size="14.00">1201</text>
</g>
<!-- 12&#45;&gt;1201 -->
<g id="edge34" class="edge">
<title>12&#45;&gt;1201</title>
<path fill="none" stroke="black" d="M1950.79,-110C1958.81,-110 1967.79,-110 1976.41,-110"/>
<polygon fill="black" stroke="black" points="1976.39,-112.8 1984.39,-110 1976.39,-107.2 1976.39,-112.8"/>
</g>
<!-- 1701 -->
<g id="node35" class="node">
<title>1701</title>
<ellipse fill="white" stroke="black" cx="2108.18" cy="-164" rx="28.7" ry="18"/>
<text text-anchor="middle" x="2108.18" y="-160.3" font-family="XITS" font-size="14.00">1701</text>
</g>
<!-- 17&#45;&gt;1701 -->
<g id="edge43" class="edge">
<title>17&#45;&gt;1701</title>
<path fill="none" stroke="black" d="M1950.58,-164C1981.93,-164 2034.65,-164 2070.16,-164"/>
<polygon fill="black" stroke="black" points="2069.73,-166.8 2077.73,-164 2069.73,-161.2 2069.73,-166.8"/>
</g>
<!-- 13 -->
<g id="node28" class="node">
<title>13</title>
<ellipse fill="white" stroke="black" cx="2108.18" cy="-110" rx="27" ry="18"/>
<text text-anchor="middle" x="2108.18" y="-106.3" font-family="XITS" font-size="14.00">13</text>
</g>
<!-- 1201&#45;&gt;13 -->
<g id="edge35" class="edge">
<title>1201&#45;&gt;13</title>
<path fill="none" stroke="black" d="M2043.84,-110C2052.55,-110 2062.28,-110 2071.45,-110"/>
<polygon fill="black" stroke="black" points="2071.23,-112.8 2079.23,-110 2071.23,-107.2 2071.23,-112.8"/>
</g>
<!-- 1301 -->
<g id="node29" class="node">
<title>1301</title>
<ellipse fill="white" stroke="black" cx="2201.38" cy="-110" rx="28.7" ry="18"/>
<text text-anchor="middle" x="2201.38" y="-106.3" font-family="XITS" font-size="14.00">1301</text>
</g>
<!-- 13&#45;&gt;1301 -->
<g id="edge36" class="edge">
<title>13&#45;&gt;1301</title>
<path fill="none" stroke="black" d="M2135.56,-110C2144.15,-110 2153.85,-110 2163.08,-110"/>
<polygon fill="black" stroke="black" points="2162.96,-112.8 2170.96,-110 2162.96,-107.2 2162.96,-112.8"/>
</g>
<!-- 14 -->
<g id="node30" class="node">
<title>14</title>
<polygon fill="#d5e8d4" stroke="black" points="2319.97,-144 2265.97,-144 2265.97,-108 2319.97,-108 2319.97,-144"/>
<text text-anchor="middle" x="2292.97" y="-122.3" font-family="XITS" font-size="14.00">14</text>
</g>
<!-- 1301&#45;&gt;14 -->
<g id="edge37" class="edge">
<title>1301&#45;&gt;14</title>
<path fill="none" stroke="black" d="M2229.26,-114.8C2237.83,-116.33 2247.45,-118.05 2256.53,-119.67"/>
<polygon fill="black" stroke="black" points="2255.87,-122.4 2264.24,-121.05 2256.85,-116.88 2255.87,-122.4"/>
</g>
<!-- 19 -->
<g id="node31" class="node">
<title>19</title>
<ellipse fill="#fff2cc" stroke="black" cx="2292.97" cy="-72" rx="27" ry="18"/>
<text text-anchor="middle" x="2292.97" y="-68.3" font-family="XITS" font-size="14.00">19</text>
</g>
<!-- 1301&#45;&gt;19 -->
<g id="edge38" class="edge">
<title>1301&#45;&gt;19</title>
<path fill="none" stroke="black" d="M2225.92,-100.02C2236.66,-95.46 2249.53,-90 2261.04,-85.12"/>
<polygon fill="black" stroke="black" points="2261.85,-87.82 2268.12,-82.12 2259.67,-82.66 2261.85,-87.82"/>
</g>
<!-- 1401 -->
<g id="node32" class="node">
<title>1401</title>
<ellipse fill="white" stroke="black" cx="2384.57" cy="-126" rx="28.7" ry="18"/>
<text text-anchor="middle" x="2384.57" y="-122.3" font-family="XITS" font-size="14.00">1401</text>
</g>
<!-- 14&#45;&gt;1401 -->
<g id="edge39" class="edge">
<title>14&#45;&gt;1401</title>
<path fill="none" stroke="black" d="M2320.37,-126C2328.4,-126 2337.38,-126 2345.99,-126"/>
<polygon fill="black" stroke="black" points="2345.98,-128.8 2353.98,-126 2345.98,-123.2 2345.98,-128.8"/>
</g>
<!-- 1901 -->
<g id="node36" class="node">
<title>1901</title>
<ellipse fill="white" stroke="black" cx="2384.57" cy="-72" rx="28.7" ry="18"/>
<text text-anchor="middle" x="2384.57" y="-68.3" font-family="XITS" font-size="14.00">1901</text>
</g>
<!-- 19&#45;&gt;1901 -->
<g id="edge46" class="edge">
<title>19&#45;&gt;1901</title>
<path fill="none" stroke="black" d="M2320.37,-72C2328.4,-72 2337.38,-72 2345.99,-72"/>
<polygon fill="black" stroke="black" points="2345.98,-74.8 2353.98,-72 2345.98,-69.2 2345.98,-74.8"/>
</g>
<!-- 1502 -->
<g id="node34" class="node">
<title>1502</title>
<ellipse fill="white" stroke="black" cx="2660.96" cy="-137" rx="28.7" ry="18"/>
<text text-anchor="middle" x="2660.96" y="-133.3" font-family="XITS" font-size="14.00">1502</text>
</g>
<!-- 1501&#45;&gt;1502 -->
<g id="edge42" class="edge">
<title>1501&#45;&gt;1502</title>
<path fill="none" stroke="black" d="M2596.62,-137C2604.86,-137 2614,-137 2622.72,-137"/>
<polygon fill="black" stroke="black" points="2622.45,-139.8 2630.45,-137 2622.45,-134.2 2622.45,-139.8"/>
</g>
<!-- 1701&#45;&gt;15 -->
<g id="edge44" class="edge">
<title>1701&#45;&gt;15</title>
<path fill="none" stroke="black" d="M2136.66,-160.51C2192.37,-154.74 2321.1,-148.19 2413.17,-196 2432.59,-206.08 2448.63,-225 2459.53,-240.77"/>
<polygon fill="black" stroke="black" points="2457.17,-242.28 2463.92,-247.41 2461.84,-239.19 2457.17,-242.28"/>
</g>
<!-- 1901&#45;&gt;15 -->
<g id="edge47" class="edge">
<title>1901&#45;&gt;15</title>
<path fill="none" stroke="black" d="M2402.63,-86.36C2406.47,-90.18 2410.25,-94.5 2413.17,-99 2442.38,-144.07 2460.4,-204.82 2469.03,-239.56"/>
<polygon fill="black" stroke="black" points="2466.27,-240.04 2470.86,-247.16 2471.71,-238.73 2466.27,-240.04"/>
</g>
</g>
</svg>
